# xmcd
#
# Track frame offsets: 
#        150
#        16835
#        49897
#
# Disc length: 1086 seconds
#
# Revision: 0
# Processed by: cddbd v1.5.2PL0 Copyright (c) Steve Scherf et al.
# Submitted via: ExactAudioCopy v0.99pb5
#
DISCID=1b043c03
DTITLE=Digital Underground - Kiss You Back
DYEAR=1991
DGENRE=Rap
TTITLE0=Kiss You Back (Smack On The Cheek Mix)
TTITLE1=Kiss You Back (On The Jazz Tip Mix)
TTITLE2=Kiss You Back (Full French Kiss Mix)
EXTD=
EXTT0=
EXTT1=
EXTT2=
PLAYORDER=
